<?xml version="1.0" standalone="no"?>
<!DOCTYPE svg PUBLIC "-//W3C//DTD SVG 20010904//EN"
 "http://www.w3.org/TR/2001/REC-SVG-20010904/DTD/svg10.dtd">
<svg version="1.0" xmlns="http://www.w3.org/2000/svg"
 width="1200.000000pt" height="900.000000pt" viewBox="0 0 1200.000000 900.000000"
 preserveAspectRatio="xMidYMid meet">

<g transform="translate(0.000000,900.000000) scale(0.100000,-0.100000)"
fill="#000000" stroke="none">
<path d="M1628 7373 l-1628 -1628 0 -662 0 -663 1630 0 1630 0 0 -810 0 -810
811 -2 c446 -2 813 -1 815 1 2 2 4 665 4 1473 l0 1468 -1625 0 c-974 0 -1625
4 -1625 9 0 5 729 735 1620 1622 891 888 1620 1617 1620 1621 0 5 -366 8 -812
8 l-813 0 -1627 -1627z"/>
<path d="M5580 8183 l0 -818 815 815 815 815 0 -815 0 -815 -815 -815 -815
-815 2 -810 3 -810 1628 -3 1627 -2 0 817 0 818 -815 -815 -815 -815 0 810 0
810 815 815 815 815 0 817 0 818 -1630 0 -1630 0 0 -817z"/>
<path d="M5590 1400 l0 -1400 80 0 80 0 0 1400 0 1400 -80 0 -80 0 0 -1400z"/>
<path d="M8035 2628 c-7 -41 -35 -278 -35 -295 0 -10 -101 -13 -505 -13 -278
0 -505 -2 -505 -5 0 -4 61 -76 136 -160 l136 -155 347 0 346 0 -14 -130 -15
-130 -403 0 -403 0 -5 -22 c-6 -30 -95 -768 -95 -790 0 -16 19 -18 217 -20
l217 -3 -399 -365 c-219 -201 -405 -371 -414 -377 -13 -10 59 -12 349 -10
l365 2 48 355 c26 195 50 365 53 378 4 22 6 22 184 22 118 0 180 -4 180 -10 0
-15 -79 -666 -86 -712 l-6 -38 216 0 c118 0 217 3 219 8 2 4 24 172 48 374 24
202 47 364 51 360 3 -4 90 -172 193 -374 l187 -368 219 0 219 0 -190 373
c-105 206 -190 377 -190 380 0 4 85 7 190 7 189 0 190 0 194 22 3 13 26 185
51 383 25 198 49 375 52 393 l5 32 -417 0 -417 0 6 38 c3 20 8 62 11 92 3 30
8 72 11 93 l6 37 469 0 c413 0 501 4 461 22 -4 2 -65 69 -136 151 l-128 147
-315 0 -314 0 6 33 c7 40 35 277 35 294 0 10 -47 13 -215 13 l-214 0 -6 -32z
m-142 -1150 c-3 -29 -6 -59 -9 -66 -3 -10 -49 -12 -206 -10 l-203 3 3 45 c6
86 -11 80 216 80 l203 0 -4 -52z m847 33 c0 -10 -3 -39 -6 -65 l-7 -46 -205 0
-205 0 7 46 c3 26 6 55 6 65 0 18 12 19 205 19 193 0 205 -1 205 -19z m-880
-288 c0 -16 -3 -45 -6 -65 l-7 -38 -205 0 -205 0 7 46 c3 26 6 55 6 65 0 18
12 19 205 19 l205 0 0 -27z m846 5 c-3 -13 -6 -42 -6 -65 l0 -43 -208 0 -209
0 4 33 c2 17 6 47 9 65 l5 32 206 0 205 0 -6 -22z"/>
<path d="M10569 2658 c0 -2 -10 -77 -22 -168 l-22 -165 -534 -5 -534 -5 138
-157 137 -158 1130 0 c748 0 1129 3 1126 10 -1 5 -61 77 -133 160 l-129 150
-384 0 -384 0 6 28 c8 41 36 263 36 289 l0 23 -215 0 c-118 0 -215 -1 -216 -2z"/>
<path d="M9706 1732 c-3 -5 -25 -175 -50 -378 -25 -203 -48 -386 -52 -406 l-6
-37 162 -3 161 -3 -258 -345 c-142 -190 -269 -360 -282 -378 l-22 -32 219 0
220 0 279 374 c153 206 281 375 284 375 4 1 -42 -384 -85 -706 l-6 -43 215 0
c165 0 215 3 216 13 0 6 21 176 47 377 l47 365 179 3 179 2 -6 -42 c-23 -171
-80 -708 -76 -713 3 -3 166 -4 361 -3 l356 3 -315 375 -315 375 196 3 c108 1
196 3 196 5 13 73 106 814 103 820 -6 10 -1941 9 -1947 -1z m1513 -249 c0 -16
-8 -98 -17 -183 l-18 -155 -572 -3 -573 -2 6 42 c8 63 35 301 35 316 0 9 121
12 570 12 l570 0 -1 -27z"/>
</g>
</svg>
